<svg xmlns="http://www.w3.org/2000/svg" width="24" height="24" viewBox="0 0 24 24">
<path d="M 18.20 6.20 L 18.05 6.21 L 17.90 6.22 L 17.75 6.23 L 17.60 6.23 L 17.46 6.24 L 17.32 6.24 L 17.18 6.24 L 17.04 6.24 L 16.90 6.23 L 16.76 6.23 L 16.62 6.23 L 16.49 6.22 L 16.35 6.22 L 16.22 6.22 L 16.08 6.22 L 15.95 6.22 L 15.82 6.22 L 15.69 6.23 L 15.56 6.24 L 15.43 6.26 L 15.31 6.27 L 15.18 6.30 L 15.06 6.32 L 14.94 6.36 L 14.83 6.39 L 14.72 6.44 L 14.61 6.49 L 14.51 6.54 L 14.41 6.60 L 14.31 6.67 L 14.23 6.75 L 14.14 6.82 L 14.07 6.91 L 14.00 7.00 L 13.93 7.09 L 13.88 7.19 L 13.83 7.30 L 13.79 7.41 L 13.75 7.52 L 13.72 7.63 L 13.70 7.75 L 13.69 7.87 L 13.68 7.99 L 13.68 8.11 L 13.68 8.24 L 13.69 8.36 L 13.71 8.49 L 13.73 8.61 L 13.75 8.73 L 13.78 8.85 L 13.81 8.97 L 13.84 9.09 L 13.87 9.21 L 13.91 9.32 L 13.94 9.43 L 13.98 9.54 L 14.01 9.65 L 14.04 9.75 L 14.07 9.85 L 14.10 9.95 L 14.12 10.04 L 14.14 10.13 L 14.15 10.22 L 14.16 10.31 L 14.16 10.39 L 14.16 10.47 L 14.15 10.55 L 14.13 10.62 L 14.11 10.70 L 14.07 10.77 L 14.03 10.84 L 13.99 10.91 L 13.93 10.98 L 13.87 11.04 L 13.80 11.11 L 13.72 11.17 L 13.63 11.23 L 13.54 11.29 L 13.44 11.35 L 13.34 11.41 L 13.23 11.47 L 13.11 11.53 L 12.99 11.59 L 12.86 11.65 L 12.73 11.71 L 12.60 11.77 L 12.47 11.83 L 12.33 11.88 L 12.19 11.94 L 12.05 12.00 L 11.91 12.06 L 11.77 12.12 L 11.63 12.18 L 11.50 12.23 L 11.37 12.29 L 11.24 12.35 L 11.11 12.41 L 10.99 12.47 L 10.88 12.53 L 10.76 12.59 L 10.66 12.65 L 10.56 12.72 L 10.47 12.78 L 10.38 12.84 L 10.31 12.91 L 10.24 12.97 L 10.17 13.04 L 10.12 13.11 L 10.07 13.18 L 10.03 13.25 L 10.00 13.32 L 9.98 13.40 L 9.96 13.47 L 9.95 13.55 L 9.95 13.63 L 9.95 13.72 L 9.96 13.80 L 9.98 13.89 L 10.00 13.98 L 10.02 14.08 L 10.05 14.17 L 10.08 14.27 L 10.12 14.37 L 10.15 14.48 L 10.19 14.59 L 10.23 14.70 L 10.27 14.81 L 10.31 14.92 L 10.34 15.04 L 10.38 15.16 L 10.41 15.28 L 10.44 15.40 L 10.46 15.52 L 10.48 15.64 L 10.49 15.76 L 10.50 15.88 L 10.51 16.01 L 10.50 16.13 L 10.49 16.24 L 10.48 16.36 L 10.45 16.47 L 10.42 16.59 L 10.38 16.69 L 10.34 16.80 L 10.29 16.90 L 10.23 16.99 L 10.17 17.08 L 10.09 17.17 L 10.02 17.24 L 9.93 17.32 L 9.84 17.39 L 9.75 17.45 L 9.65 17.50 L 9.55 17.55 L 9.44 17.60 L 9.33 17.64 L 9.22 17.67 L 9.10 17.70 L 8.98 17.72 L 8.86 17.74 L 8.74 17.76 L 8.61 17.77 L 8.48 17.77 L 8.36 17.78 L 8.23 17.78 L 8.10 17.78 L 7.97 17.78 L 7.84 17.78 L 7.71 17.77 L 7.58 17.77 L 7.45 17.77 L 7.31 17.76 L 7.18 17.76 L 7.04 17.76 L 6.91 17.76 L 6.77 17.77 L 6.63 17.77 L 6.49 17.78 L 6.35 17.79 L 6.20 17.80" fill="none" stroke="#e4eded" stroke-width="2.6" stroke-linecap="round" stroke-linejoin="round"></path>
<circle cx="18.2" cy="6.2" r="3" fill="#416f6f"></circle>
<circle cx="6.2" cy="17.8" r="3" fill="#416f6f"></circle></svg>
